<svg id="switch" xmlns="http://www.w3.org/2000/svg" viewBox="0 0 98 44.7"><defs><style>.cls-1{fill:#f4514a;}.cls-2{fill:#eee;}.cls-3{fill:#d21007;}</style></defs><g id="button-off"><path class="cls-1" d="M21.9,46.4V4.4A1.37,1.37,0,0,1,23.3,3H76.8a22.3,22.3,0,0,1-.1,44.6H23.2A1.18,1.18,0,0,1,21.9,46.4Z" transform="translate(-1 -3)"/><path class="cls-2" d="M57.8,3.1h2.9V47.6H57.8Zm12.5,0H73V47.6H70.3Z" transform="translate(-1 -3)"/><path class="cls-3" d="M1,25.3A22.25,22.25,0,1,1,23.2,47.7,22.15,22.15,0,0,1,1,25.3Z" transform="translate(-1 -3)"/><path class="cls-2" d="M9.6,25.3A13.83,13.83,0,0,1,23.3,11.4a13.8,13.8,0,0,1,0,27.6A13.72,13.72,0,0,1,9.6,25.3Z" transform="translate(-1 -3)"/></g></svg>