<svg id="switch" xmlns="http://www.w3.org/2000/svg" viewBox="0 0 98 44.6"><defs><style>.cls-1{fill:#80cb3d;}.cls-2{fill:#eee;}.cls-3{fill:#3fbb4d;}</style></defs><g id="button-on"><path class="cls-1" d="M76.8,47.6H23.2A22.3,22.3,0,0,1,23.3,3H76.8a1.37,1.37,0,0,1,1.4,1.4v42A1.32,1.32,0,0,1,76.8,47.6Z" transform="translate(-1 -3)"/><path class="cls-2" d="M42.2,47.6H39.3V3.1h2.9Zm-12.5,0H27V3.1h2.7Z" transform="translate(-1 -3)"/><path class="cls-3" d="M76.8,47.6A22.3,22.3,0,1,1,99,25.3,22.32,22.32,0,0,1,76.8,47.6Z" transform="translate(-1 -3)"/><path class="cls-2" d="M76.8,39A13.8,13.8,0,1,1,90.5,25.3,13.85,13.85,0,0,1,76.8,39Z" transform="translate(-1 -3)"/></g></svg>